<?xml version="1.0" standalone="no"?><!DOCTYPE svg PUBLIC "-//W3C//DTD SVG 1.1//EN" "http://www.w3.org/Graphics/SVG/1.1/DTD/svg11.dtd"><svg t="1558060971634" class="icon" style="" viewBox="0 0 1024 1024" version="1.1" xmlns="http://www.w3.org/2000/svg" p-id="3513" xmlns:xlink="http://www.w3.org/1999/xlink" width="200" height="200"><defs><style type="text/css"></style></defs><path d="M746.661625 63.981625H21.333875C9.557944 63.981625 0 73.537569 0 85.3135v639.99625c0 3.41398 0.981994 6.527962 2.389986 9.385945 0.127999 0.255999 0.042 0.553997 0.213999 0.853995 0.297998 0.511997 0.895995 0.767996 1.193993 1.237993a21.455874 21.455874 0 0 0 5.461968 5.631967c0.767996 0.553997 1.407992 1.065994 2.217987 1.493991 2.985983 1.62199 6.229963 2.729984 9.855942 2.729984h725.32975c3.45598 0 6.613961-1.023994 9.471945-2.473985 0.809995-0.425998 1.449992-0.981994 2.217987-1.493992a19.993883 19.993883 0 0 0 5.205969-4.99197c0.341998-0.469997 0.937995-0.681996 1.237993-1.193993 0.213999-0.383998 0.169999-0.809995 0.383998-1.193993 1.237993-2.261987 1.961989-4.735972 2.303986-7.423957 0.085999-0.725996 0.383998-1.321992 0.425998-2.047988 0-0.169999 0.085999-0.341998 0.085999-0.511997v-639.99625c-0.002-11.777931-9.559944-21.333875-21.335875-21.333875z m-21.331875 570.960655l-194.260862-388.477724a21.347875 21.347875 0 0 0-18.517891-11.775931c-8.063953-0.383998-15.189911 3.925977-19.113888 10.751937l-156.799081 274.430392-108.245366-108.329365a21.459874 21.459874 0 0 0-17.321899-6.101965 21.303875 21.303875 0 0 0-15.657908 9.685944L42.66575 652.692176V106.647375h682.662v528.294905z" fill="" p-id="3514"></path><path d="M234.664625 255.9805m-106.665375 0a106.665375 106.665375 0 1 0 213.33075 0 106.665375 106.665375 0 1 0-213.33075 0Z" fill="" p-id="3515"></path><path d="M799.483316 787.305387c-6.441962-6.86996-16.553903-8.789948-25.001854-4.693973-9.129947 4.437974-18.473892 6.697961-27.817837 6.697961H473.597225c-9.727943 0-18.217893 6.569962-20.649879 15.999906s1.79199 19.285887 10.28194 24.02186l230.39865 127.99925a21.087876 21.087876 0 0 0 10.325939 2.687984c7.337957 0 14.463915-3.797978 18.473892-10.581938l79.829532-136.873198a21.373875 21.373875 0 0 0-2.773983-25.257852zM1014.480056 408.895604l-170.665-113.791333c-6.569962-4.351975-15.017912-4.735972-21.887872-1.065994a21.409875 21.409875 0 0 0-11.263934 18.81589v406.311619a21.319875 21.319875 0 0 0 15.785908 20.607879c1.833989 0.511997 3.711978 0.725996 5.545967 0.725996a21.339875 21.339875 0 0 0 18.431892-10.581938l170.665-292.564286c5.675967-9.725943 2.815984-22.22787-6.611961-28.457833z" fill="" p-id="3516"></path></svg>