<?xml version="1.0" standalone="no"?><!DOCTYPE svg PUBLIC "-//W3C//DTD SVG 1.1//EN" "http://www.w3.org/Graphics/SVG/1.1/DTD/svg11.dtd"><svg t="1558065195742" class="icon" style="" viewBox="0 0 1024 1024" version="1.1" xmlns="http://www.w3.org/2000/svg" p-id="10145" xmlns:xlink="http://www.w3.org/1999/xlink" width="200" height="200"><defs><style type="text/css"></style></defs><path d="M498.480008 245.001943c20.771981 0 38.715852 15.489592 43.608158 37.643121l2.958138 12.775256c3.283208 18.919082 4.941066 38.081966 4.95732 57.277357 0 47.070155-4.485968 83.364235-13.734213 110.913928l-24.168964 72.084301 76.098917 0.32507c73.433342 0.308817 185.127438 0.828929 195.88726 1.040224 19.244152 0.812675 26.818286 7.379092 33.384702 18.366463 6.680191 11.26368 7.83419 22.494853 7.476613 30.394057-4.989826 30.946676-66.590616 308.507806-76.9441 350.311824a48.516717 48.516717 0 0 1-14.953226 16.155986c-10.353484 6.85898-11.052384 6.85898-15.749647 6.858979l-445.752415 0.016254 0.617634-403.997156c107.760748-33.677265 186.135156-133.278753 189.239575-248.808677l0.081268-3.023152-0.162535-1.999182 0.032507-1.170252 0.065014-4.713517c0.016254-24.298992 11.605004-50.450884 37.057994-50.450884zM128.891525 567.764074v391.628238H55.003085V567.764074h73.904694zM498.496262 190.032584c-55.229415 0-92.043607 47.817816-92.043607 105.387736 0 3.250701-0.260056 6.338868 0 9.443287-2.893124 107.63072-87.963977 194.164388-189.190815 206.029448l-0.780169 503.20856h9.882132l0.455099-0.016254 0.487605 0.016254 490.026966-0.016254h0.308816c18.49649 0 28.931241-4.843545 45.786128-15.99345a103.957427 103.957427 0 0 0 36.115291-41.852779c2.194223-3.331969 78.260634-344.801886 80.211055-365.053755a109.58114 109.58114 0 0 0-14.985733-63.82752c-18.610265-31.222986-45.6561-43.835707-78.374408-45.217255-1.690365-0.260056-197.951455-1.088985-197.951456-1.088985 13.002805-38.764613 16.578577-84.957078 16.578577-128.370194 0-27.549693-2.925631-55.018119-8.711879-81.966433l-0.487606 0.065014c-10.239709-46.257479-49.898265-80.74742-97.325996-80.74742zM145.242553 512.794715H38.668311C17.29495 512.794715 0.001219 530.624812 0.001219 552.615806v421.892267c0 21.990994 17.293731 39.821091 38.683345 39.821091h106.557989c21.373361 0 38.683345-17.830097 38.683345-39.821091V552.615806c0-21.990994-17.309984-39.821091-38.683345-39.821091z m83.120432 501.323153a1.739125 1.739125 0 0 1-0.422592 0.113775c0.211296 0.048761 0.178789 0.081268 0 0.081267a8.890668 8.890668 0 0 1-0.585126-0.032507 7.55788 7.55788 0 0 1-0.568872 0.032507c-0.162535 0-0.162535-0.016254 0-0.081267-0.227549-0.048761-0.406338-0.081268-0.422592-0.113775h1.999182zM1011.586953 133.145312a16.188492 16.188492 0 0 1 8.516838 26.233159l-74.798637 87.898963 8.809401 115.026065a16.172239 16.172239 0 0 1-22.316065 16.204746l-106.785537-43.916974-106.785538 43.916974a16.237253 16.237253 0 0 1-22.316064-16.204746l8.809401-115.026065-74.798637-87.898963a16.172239 16.172239 0 0 1 8.516837-26.216906l112.230462-27.192116L811.213726 7.717002a16.220999 16.220999 0 0 1 27.598454 0l60.544311 98.236193 112.230462 27.175863z m-71.369146 21.698431l-69.304952-16.773619-37.383065-60.658086a10.01216 10.01216 0 0 0-17.033675 0l-37.383064 60.658086-69.304952 16.789872a9.995906 9.995906 0 0 0-5.266136 16.188493l46.192465 54.270458-5.444924 71.027823a10.01216 10.01216 0 0 0 13.782973 10.01216l65.940476-27.127102 65.940476 27.127102a10.028413 10.028413 0 0 0 13.782973-10.01216l-5.444925-71.027823 46.192466-54.270458a9.995906 9.995906 0 0 0-5.266136-16.204746z" fill="" p-id="10146"></path></svg>