<?xml version="1.0" standalone="no"?><!DOCTYPE svg PUBLIC "-//W3C//DTD SVG 1.1//EN" "http://www.w3.org/Graphics/SVG/1.1/DTD/svg11.dtd"><svg t="1558065314106" class="icon" style="" viewBox="0 0 1056 1024" version="1.1" xmlns="http://www.w3.org/2000/svg" p-id="10908" xmlns:xlink="http://www.w3.org/1999/xlink" width="206.25" height="200"><defs><style type="text/css"></style></defs><path d="M525.824 61.952c-252.416 0-450.048 197.632-450.048 450.048s197.632 450.048 450.048 450.048 450.048-197.632 450.048-450.048S778.24 61.952 525.824 61.952z m0 838.144c-217.6 0-388.608-171.008-388.608-388.608s170.496-388.608 388.608-388.608 388.608 171.008 388.608 388.608-169.984 388.608-388.608 388.608z" fill="" p-id="10909"></path><path d="M738.816 633.344c-2.56-5.632-5.632-13.312-12.8-16.896L547.84 507.904v-214.016c0-12.8-6.656-19.456-19.456-19.456H512c-12.8 0-19.456 12.8-19.456 19.456v235.008c0 6.144 5.632 18.432 12.8 19.456l192.512 120.32c3.072 2.048 7.168 2.56 11.264 2.56 9.216 0 18.432-4.608 22.528-9.216l12.8-18.944-1.536-1.536c-1.536-1.536-2.56-5.12-4.096-8.192z" fill="" p-id="10910"></path></svg>