<?xml version="1.0" standalone="no"?><!DOCTYPE svg PUBLIC "-//W3C//DTD SVG 1.1//EN" "http://www.w3.org/Graphics/SVG/1.1/DTD/svg11.dtd"><svg t="1557302206991" class="icon" style="" viewBox="0 0 1024 1024" version="1.1" xmlns="http://www.w3.org/2000/svg" p-id="10846" xmlns:xlink="http://www.w3.org/1999/xlink" width="200" height="200"><defs><style type="text/css"></style></defs><path d="M578.286933 109.124267l437.896533 0 0 62.5664L578.286933 171.690667 578.286933 109.124267zM578.286933 298.0864l437.896533 0 0 62.5664L578.286933 360.6528 578.286933 298.0864zM578.286933 674.065067l437.896533 0 0 62.5664L578.286933 736.631467 578.286933 674.065067zM578.286933 863.0272l437.896533 0 0 62.5664L578.286933 925.5936 578.286933 863.0272zM448.580267 454.4512 10.683733 454.4512 10.683733 16.554667l437.930667 0L448.6144 454.4512zM386.013867 79.121067 73.250133 79.121067l0 312.763733 312.797867 0L386.048 79.121067zM448.580267 1017.514667 10.683733 1017.514667 10.683733 579.584l437.930667 0L448.6144 1017.514667zM386.013867 642.1504 73.250133 642.1504l0 312.7296 312.797867 0L386.048 642.1504z" p-id="10847"></path></svg>