<?xml version="1.0" standalone="no"?><!DOCTYPE svg PUBLIC "-//W3C//DTD SVG 1.1//EN" "http://www.w3.org/Graphics/SVG/1.1/DTD/svg11.dtd"><svg t="1558065436046" class="icon" style="" viewBox="0 0 1032 1024" version="1.1" xmlns="http://www.w3.org/2000/svg" p-id="11685" xmlns:xlink="http://www.w3.org/1999/xlink" width="201.5625" height="200"><defs><style type="text/css"></style></defs><path d="M701.635 166.006c0.522 0 37.75 46.274 69.79 86.236h120.361c43.9 0 79.473 34.626 79.473 77.353v451.051c0 42.727-35.574 77.348-79.473 77.348h-751.57c-43.899 0-79.477-34.626-79.477-77.348V329.595c0-42.732 35.578-77.353 79.477-77.353h228.296c32.369-39.957 69.996-86.236 70.615-86.236h262.508M260.536 448.138c24.976 0 45.225-19.712 45.225-44.016 0-24.33-20.25-44.043-45.225-44.043-24.996 0-45.24 19.712-45.24 44.043-0.005 24.31 20.244 44.016 45.24 44.016m322.816 315.484c110.06 0 197.156-85.908 197.156-193.715 0-107.812-87.096-195.2-197.156-195.2s-199.29 87.388-199.29 195.2c0 107.802 89.23 193.715 199.29 193.715m118.283-649.236H439.127c-8.545 0-24.94 2.258-38.723 17.408-0.675 0.742-1.428 1.597-2.365 2.688a594.258 594.258 0 0 0-5.376 6.405c-3.963 4.772-9.656 11.7-16.916 20.593a14125.978 14125.978 0 0 0-31.837 39.137H140.216c-34.76 0-67.502 13.24-92.2 37.279a128.497 128.497 0 0 0-28.376 41.01A126.397 126.397 0 0 0 9.12 329.59V780.64c0 17.567 3.538 34.617 10.521 50.683a128.307 128.307 0 0 0 28.375 41.006c24.7 24.039 57.447 37.279 92.201 37.279h751.57c34.76 0 67.502-13.24 92.206-37.279a128.4 128.4 0 0 0 28.37-41.011 126.464 126.464 0 0 0 10.522-50.678V329.595a126.362 126.362 0 0 0-10.522-50.683 128.4 128.4 0 0 0-28.37-41.011c-24.699-24.039-57.446-37.279-92.206-37.279h-95.595a23119.585 23119.585 0 0 0-31.32-38.917 4571.187 4571.187 0 0 0-16.675-20.552 707.188 707.188 0 0 0-5.223-6.313 146.079 146.079 0 0 0-2.186-2.54c-13.814-15.59-30.459-17.914-39.152-17.914M583.352 711.997c-81.423 0-147.666-63.738-147.666-142.09 0-79.17 66.243-143.58 147.666-143.58 81.608 0 145.536 63.068 145.536 143.58-0.005 79.673-63.928 142.09-145.536 142.09" fill="" p-id="11686"></path></svg>